<?xml version="1.0" standalone="no"?><!-- Generator: Gravit.io --><svg xmlns="http://www.w3.org/2000/svg" xmlns:xlink="http://www.w3.org/1999/xlink" style="isolation:isolate" viewBox="-39.265842578476224 0 59.265842578476224 120" width="59.265842578476224" height="120"><g style="isolation:isolate"/><g style="isolation:isolate"><path d="M -18.74500996019888 10.000000000000002 L -11.254990039801115 10 C -10.56234218688448 10 -10 10.562342186884479 -10 11.254990039801111 L -10 38.745009960198885 C -10 39.43765781311552 -10.56234218688448 40 -11.254990039801113 40 L -18.745009960198885 40 C -19.437657813115518 40 -20 39.43765781311552 -20 38.745009960198885 L -20 11.254990039801111 C -20 10.562342186884479 -19.437657813115518 10 -18.74500996019888 10.000000000000002 Z" style="stroke:none;fill:#B15AB3;stroke-miterlimit:10;"/><path d="M 11.254990039801113 10 L 18.745009960198885 10.000000000000004 C 19.437657813115518 10 20 10.562342186884479 20 11.254990039801111 L 20 38.745009960198885 C 20 39.43765781311552 19.437657813115518 40 18.74500996019888 40 L 11.254990039801113 40 C 10.56234218688448 40 10 39.43765781311552 10 38.745009960198885 L 10 11.254990039801111 C 10 10.562342186884479 10.56234218688448 10 11.254990039801113 10 Z" style="stroke:none;fill:#6E52FF;stroke-miterlimit:10;"/><path d="M -38.74328920083224 49 L -31.256710799167763 49 C -30.563113233310872 49 -30 49.56157219621838 -30 50.25327163659533 L -30 77.74672836340467 C -30 78.43842780378162 -30.563113233310872 79 -31.256710799167763 79 L -38.74328920083224 79 C -39.43688676668913 79 -40 78.43842780378162 -40 77.74672836340467 L -40 50.25327163659533 C -40 49.56157219621838 -39.43688676668913 49 -38.74328920083224 49 Z" style="stroke:none;fill:#F75839;stroke-miterlimit:10;"/><path d="M -8.743289200832235 49 L -1.2567107991677648 48.99999999999999 C -0.5631132333108719 49 0 49.58029126942566 0 50.29504735781517 L 0 78.70495264218484 C 0 79.41970873057434 -0.5631132333108724 80 -1.256710799167765 80 L -8.743289200832235 80 C -9.436886766689128 80 -10 79.41970873057434 -10 78.70495264218484 L -10 50.29504735781517 C -10 49.58029126942566 -9.436886766689128 49 -8.743289200832235 49 Z" style="stroke:none;fill:#5AC284;stroke-miterlimit:10;"/><path d="M 11.271118511938628 89 L 18.728881488061372 89 C 19.43043088700035 89 20 89.57371385759915 20 90.28036841939925 L 20 118.71963158060075 C 19.999999999999996 119.42628614240085 19.430430887000348 120 18.72888148806137 120 L 11.27111851193863 120.00000000000001 C 10.56956911299965 120 9.999999999999998 119.42628614240085 10 118.71963158060075 L 10 90.28036841939925 C 10 89.57371385759915 10.56956911299965 89 11.271118511938628 89 Z" style="stroke:none;fill:#6E52FF;stroke-miterlimit:10;"/><path d="M -18.72888148806137 89 L -11.27111851193863 89 C -10.56956911299965 88.99999999999999 -10 89.57371385759915 -10 90.28036841939925 L -10 118.71963158060075 C -9.999999999999998 119.42628614240085 -10.569569112999652 120 -11.271118511938628 120 L -18.728881488061372 120 C -19.43043088700035 120 -19.999999999999996 119.42628614240085 -20 118.71963158060075 L -20 90.28036841939925 C -20 89.57371385759915 -19.430430887000348 89 -18.72888148806137 89 Z" style="stroke:none;fill:#B15AB3;stroke-miterlimit:10;"/></g></svg>