<svg xmlns="http://www.w3.org/2000/svg" version="1.0" width="298.000000" height="400.000000" viewBox="0 0 298.000000 400.000000" preserveAspectRatio="xMidYMid meet"><g transform="translate(0.000000,400.000000) scale(0.100000,-0.100000)" fill="#000000" stroke="none"><path d="M172 3828 c-7 -7 -12 -16 -12 -22 0 -5 6 -1 14 10 8 10 18 16 22 11 4 -4 2 -7 -4 -7 -24 0 -11 -28 16 -35 37 -10 2027 -19 2330 -10 174 5 242 10 239 19 -11 34 -44 36 -773 40 -696 4 -704 3 -264 -6 250 -5 556 -7 680 -6 165 2 209 1 165 -6 -52 -8 -935 0 -2136 19 -194 3 -269 1 -277 -7z"></path><path d="M2757 3828 c25 -12 38 -37 24 -51 -5 -5 -130 -12 -277 -16 -326 -10 -2186 -3 -2266 8 -31 4 -55 4 -53 0 3 -4 40 -10 82 -14 114 -9 2387 -8 2457 2 73 10 94 34 57 64 -13 10 -28 19 -35 18 -6 0 -1 -5 11 -11z"></path><path d="M523 3702 c-22 -17 -44 -35 -48 -41 -11 -18 -71 -12 -99 10 -69 54 -180 20 -200 -61 -4 -18 -2 -16 9 7 18 39 50 62 98 70 28 4 46 -1 81 -21 58 -34 93 -33 136 2 44 36 74 52 97 52 11 0 52 -20 93 -45 41 -24 85 -45 98 -45 12 0 50 14 83 31 80 40 125 41 178 5 48 -33 74 -30 135 15 53 39 89 38 150 -6 27 -19 55 -35 62 -35 6 0 32 11 55 25 61 35 127 34 169 -1 40 -35 70 -33 121 5 47 34 93 40 125 16 22 -17 94 -19 144 -5 116 35 166 32 221 -14 40 -34 80 -33 154 4 82 41 123 40 171 -5 20 -19 41 -35 45 -35 5 0 29 16 55 35 25 19 54 35 63 35 24 0 70 -37 81 -64 6 -15 9 -17 9 -5 1 23 -65 79 -93 79 -12 0 -41 -16 -63 -35 -41 -35 -71 -47 -57 -22 4 6 4 9 -1 5 -4 -4 -23 6 -42 22 -45 40 -94 40 -173 0 -74 -37 -105 -37 -154 0 -55 41 -90 46 -178 21 -93 -26 -138 -26 -188 -1 -44 22 -64 18 -128 -25 -46 -32 -67 -31 -114 1 -25 18 -51 27 -77 27 -24 0 -61 -11 -90 -27 -28 -14 -54 -26 -59 -26 -5 0 -30 17 -56 37 -62 48 -94 48 -165 0 -29 -21 -60 -37 -70 -37 -9 0 -36 14 -61 31 -53 36 -82 34 -174 -13 -72 -36 -96 -33 -173 18 -76 50 -117 54 -170 16z"></path><path d="M555 3698 c-11 -6 -35 -24 -53 -40 -41 -35 -83 -36 -137 -3 -46 28 -72 31 -119 11 -29 -12 -67 -68 -54 -81 2 -2 26 7 53 20 60 31 60 31 129 -1 71 -32 108 -27 166 21 49 41 95 46 131 15 29 -23 22 -25 -17 -5 -41 21 -56 19 -100 -16 -76 -62 -112 -66 -192 -25 -17 9 -41 16 -53 16 -24 0 -113 -39 -106 -47 3 -2 22 5 43 16 47 25 75 26 116 5 80 -41 116 -37 193 26 47 38 80 36 135 -9 49 -39 94 -61 127 -61 15 0 59 15 96 34 74 38 99 37 155 -3 47 -33 74 -35 112 -7 19 14 50 33 67 43 33 17 33 16 86 -20 29 -20 63 -37 75 -37 12 0 48 14 79 30 31 17 66 30 79 30 13 0 39 -13 57 -30 47 -41 84 -40 137 5 50 42 76 44 126 10 46 -31 72 -31 132 -1 84 43 129 39 217 -20 81 -53 96 -52 167 7 26 21 57 39 70 39 13 0 49 -18 82 -40 32 -22 67 -40 77 -40 10 0 34 14 54 31 30 27 40 30 73 25 27 -5 33 -4 22 3 -29 20 -71 12 -100 -19 -15 -16 -36 -30 -47 -30 -21 0 -88 39 -80 47 3 3 16 -2 29 -11 35 -25 71 -20 103 14 26 27 34 30 67 25 47 -8 52 13 12 44 -37 29 -54 26 -105 -14 -24 -19 -50 -35 -57 -35 -7 0 -28 16 -48 35 -44 45 -83 46 -164 5 -77 -39 -114 -39 -168 1 -49 36 -104 40 -187 15 -64 -20 -145 -20 -171 -1 -30 22 -71 18 -117 -14 -64 -43 -76 -44 -126 -11 -56 38 -110 40 -166 5 -53 -32 -63 -31 -121 10 -61 44 -97 45 -150 6 -60 -45 -87 -48 -134 -17 -52 35 -99 33 -178 -4 -35 -17 -74 -30 -85 -30 -12 0 -56 21 -97 45 -77 46 -101 52 -135 33z m1317 -68 c54 -42 75 -43 144 -10 95 46 140 39 243 -35 53 -38 82 -32 154 31 20 19 45 34 55 34 21 0 87 -39 79 -47 -3 -3 -16 2 -29 11 -36 25 -74 20 -115 -18 -39 -34 -74 -56 -91 -56 -5 0 -37 19 -71 41 -34 23 -80 45 -103 51 -35 8 -49 5 -105 -22 -79 -36 -100 -37 -147 -5 -50 34 -80 32 -129 -10 -50 -43 -82 -45 -132 -5 -21 17 -48 30 -60 30 -12 0 -47 -13 -78 -30 -31 -16 -67 -30 -79 -30 -13 0 -45 16 -72 35 -27 19 -57 35 -65 35 -9 0 -36 -16 -59 -35 -58 -45 -76 -50 -115 -29 -17 9 -49 26 -70 37 l-37 19 -73 -36 c-41 -20 -87 -36 -103 -36 -29 0 -131 56 -121 66 2 3 22 -6 42 -21 52 -35 105 -33 175 5 70 37 95 37 153 0 61 -39 84 -38 138 5 54 43 83 44 138 4 51 -38 84 -39 143 -6 68 40 100 39 153 -3 21 -16 45 -30 54 -30 9 0 40 18 70 40 60 45 78 48 113 20z"></path><path d="M2325 3488 c-126 -4 -621 -5 -1100 -3 -478 3 -895 2 -925 -3 -32 -4 87 -6 280 -4 184 2 534 -1 778 -6 323 -7 567 -6 900 4 403 11 460 11 480 -2 32 -21 24 -47 -18 -55 -125 -26 -1222 -37 -1785 -19 -159 5 -371 11 -470 14 l-180 5 145 -9 c249 -15 802 -30 1109 -30 l293 0 -53 -40 c-62 -47 -79 -49 -123 -15 -61 46 -120 41 -171 -15 -11 -12 -32 -28 -46 -36 -24 -12 -28 -11 -50 12 -29 31 -71 54 -97 54 -11 0 -38 -21 -61 -47 l-40 -48 -27 33 c-35 44 -79 65 -121 59 -35 -6 -38 7 -4 16 28 7 93 -25 124 -63 21 -25 31 -30 40 -21 8 8 8 11 -2 11 -7 0 -33 18 -57 39 -25 21 -56 42 -70 45 -30 8 -68 -13 -84 -46 -11 -22 -10 -22 4 -4 23 29 19 9 -5 -25 -11 -16 -25 -29 -31 -29 -17 0 -78 49 -78 62 0 7 15 -2 33 -20 34 -33 51 -39 62 -22 3 5 0 7 -8 4 -8 -3 -35 13 -61 35 -27 23 -58 41 -71 41 -13 0 -51 -22 -86 -50 -34 -27 -66 -50 -69 -50 -4 0 -19 15 -33 34 -28 36 -81 66 -118 66 -24 0 -89 -45 -89 -62 0 -5 16 4 35 21 20 17 43 31 52 31 29 0 103 -41 114 -63 10 -19 7 -18 -17 5 -29 27 -73 48 -100 48 -8 0 -35 -19 -59 -41 l-45 -41 -35 31 c-27 23 -45 31 -74 31 -65 0 -144 -71 -128 -115 7 -16 9 -16 35 0 15 10 38 28 53 41 32 31 61 30 107 -1 51 -35 73 -32 115 15 19 22 42 40 51 40 8 0 41 -21 72 -46 71 -58 93 -59 148 -5 54 53 80 53 142 0 40 -34 52 -40 78 -35 29 5 30 5 12 -9 -27 -21 -29 -20 -80 24 -73 64 -99 63 -163 -5 -44 -46 -71 -44 -133 11 -64 57 -88 58 -130 5 -36 -45 -52 -49 -95 -19 -52 35 -73 40 -104 25 -15 -8 -34 -22 -42 -32 -8 -9 -27 -23 -44 -30 -16 -7 -23 -13 -14 -14 8 0 40 18 69 40 29 22 56 40 59 40 3 0 29 -14 56 -30 28 -16 58 -30 67 -30 9 0 32 18 51 40 19 22 43 40 54 40 10 0 43 -20 72 -45 30 -26 63 -45 76 -45 15 0 45 18 75 45 28 25 57 45 64 45 8 0 33 -16 57 -35 78 -66 90 -66 147 0 40 45 63 44 96 -4 44 -63 81 -61 137 8 18 23 36 41 41 41 5 0 29 -22 54 -49 63 -68 78 -70 131 -15 54 54 86 57 158 14 66 -39 96 -38 144 5 21 19 46 35 56 35 10 0 37 -16 61 -35 23 -19 52 -35 64 -35 13 0 40 16 61 35 22 19 46 35 56 35 9 0 44 -16 79 -35 77 -43 103 -44 149 -4 47 42 74 40 133 -9 75 -63 85 -63 175 1 l26 19 32 -36 c17 -20 37 -36 44 -36 8 0 29 18 49 41 41 49 44 88 9 121 -23 21 -25 21 -52 5 -26 -15 -30 -15 -65 3 -44 22 -79 14 -117 -26 -32 -34 -55 -30 -105 16 -59 54 -88 52 -162 -11 -18 -16 -40 -29 -50 -29 -9 0 -41 16 -69 35 -35 23 -64 35 -87 35 -24 0 -46 -10 -76 -35 -23 -19 -44 -35 -47 -35 -3 0 -28 20 -54 45 l-48 45 135 0 c178 0 680 20 723 29 19 3 39 15 45 24 9 15 6 23 -17 43 -32 27 -18 27 -422 12z m-412 -169 c20 -21 41 -39 47 -39 7 0 30 16 53 35 27 24 51 35 72 35 18 0 53 -14 85 -35 66 -43 88 -44 124 -6 60 62 112 62 172 0 35 -36 60 -36 104 1 39 34 78 38 121 13 26 -16 29 -16 47 0 10 9 22 17 27 17 13 0 45 -32 45 -44 0 -6 -7 0 -16 12 -19 27 -39 28 -57 3 -13 -20 -13 -20 -43 -1 -42 29 -80 25 -121 -10 -44 -39 -67 -38 -114 5 -51 46 -80 52 -122 26 -18 -11 -42 -29 -52 -41 -26 -28 -53 -25 -115 15 -32 21 -67 35 -85 35 -21 0 -45 -11 -72 -35 -23 -19 -47 -35 -54 -35 -6 0 -29 19 -50 41 -48 52 -72 53 -134 5 -51 -38 -85 -45 -105 -22 -6 8 -31 22 -54 31 -51 20 -75 12 -140 -44 -61 -53 -73 -54 -15 -1 55 49 104 73 133 66 12 -3 39 -17 60 -31 46 -31 67 -31 104 0 43 36 80 54 102 48 10 -3 34 -22 53 -44z m-1043 21 c11 -7 7 -8 -15 -4 -22 4 -39 -1 -65 -20 -94 -68 -111 -78 -125 -72 -8 3 -15 11 -15 17 0 8 4 8 15 -1 13 -10 22 -8 55 16 92 67 104 74 119 74 9 0 23 -5 31 -10z m253 -66 c67 -80 81 -82 134 -19 20 25 45 45 54 45 10 0 39 -22 65 -50 26 -27 54 -50 62 -50 8 0 37 20 63 45 28 27 58 45 71 45 13 0 47 -14 77 -30 74 -41 110 -39 152 5 40 42 58 44 101 6 70 -60 98 -62 136 -11 31 41 75 40 143 -2 28 -17 64 -31 80 -31 17 0 42 12 64 31 46 41 76 40 122 -2 74 -65 101 -70 161 -26 52 38 73 38 94 0 9 -17 23 -30 31 -30 15 0 47 33 65 65 6 11 12 15 12 9 0 -17 -59 -94 -72 -94 -16 0 -58 41 -58 57 0 21 -25 15 -65 -17 -62 -49 -87 -48 -145 6 -63 58 -108 61 -156 9 -31 -34 -64 -31 -138 10 -35 19 -72 35 -82 35 -11 0 -35 -16 -54 -35 -43 -44 -76 -46 -115 -5 -16 17 -43 34 -59 38 -27 7 -35 4 -67 -30 -44 -46 -66 -48 -139 -8 -81 43 -117 40 -166 -15 -50 -54 -68 -52 -125 16 -22 27 -49 49 -59 49 -9 0 -29 -18 -44 -40 -46 -69 -84 -72 -129 -9 -35 49 -62 51 -99 7 -15 -18 -28 -30 -28 -26 0 14 62 78 77 78 8 0 24 -12 36 -26z"></path><path d="M2230 3465 c-293 -10 -520 -10 -880 -3 -468 10 -1095 6 -1107 -6 -4 -3 -4 -8 -2 -10 9 -8 538 -27 994 -36 309 -6 625 -6 890 0 513 12 625 19 625 36 0 21 -34 34 -82 32 -24 0 -221 -7 -438 -13z"></path><path d="M1242 3327 c-18 -18 -32 -36 -32 -40 0 -4 14 8 31 28 44 50 78 46 148 -19 18 -17 32 -24 29 -16 -6 21 -96 80 -122 80 -12 0 -36 -15 -54 -33z"></path><path d="M282 3343 c-27 -5 -122 -93 -122 -113 0 -7 10 2 23 21 56 83 140 102 202 48 29 -26 38 -29 48 -19 9 10 9 11 -1 6 -7 -5 -27 5 -48 23 -19 17 -39 31 -44 31 -4 0 -14 2 -22 4 -7 2 -24 1 -36 -1z"></path><path d="M377 3140 c-176 -9 -218 -20 -216 -58 1 -13 2 -14 5 -2 10 35 42 41 327 52 204 7 443 7 867 -1 322 -6 758 -13 970 -16 372 -6 386 -7 403 -27 9 -11 17 -16 17 -11 0 6 -8 17 -18 27 -17 15 -83 17 -648 26 -981 16 -1524 19 -1707 10z"></path><path d="M421 3120 c-172 -7 -217 -12 -230 -24 -36 -37 -9 -38 510 -25 390 9 623 9 1029 0 289 -6 633 -12 765 -13 199 -1 221 -3 130 -8 -60 -4 -351 -3 -645 2 -297 6 -768 7 -1060 2 -289 -4 -573 -8 -633 -8 -78 -1 -100 -3 -80 -10 17 -6 113 -5 248 2 276 14 944 15 1570 3 264 -5 532 -6 595 -2 108 6 115 7 112 26 -2 11 -7 23 -10 27 -4 4 -317 12 -697 18 -1136 17 -1380 19 -1604 10z"></path><path d="M1469 2960 c-66 -50 -89 -50 -184 -4 -88 43 -119 41 -185 -9 -24 -17 -48 -36 -55 -41 -8 -6 -29 5 -64 32 -74 58 -104 62 -208 22 -108 -40 -141 -42 -186 -7 -44 34 -83 34 -130 3 -74 -51 -74 -51 -118 -12 -44 40 -71 44 -111 18 -48 -31 -72 -71 -62 -100 16 -45 37 -49 80 -14 21 18 43 32 48 32 5 0 26 -16 47 -35 22 -19 45 -35 52 -35 7 0 37 16 67 35 67 42 92 43 144 8 53 -37 103 -36 181 5 72 38 97 39 150 7 127 -77 136 -78 205 -20 54 46 89 45 192 -1 91 -41 119 -40 164 8 16 17 44 37 62 45 38 16 64 10 167 -39 74 -34 102 -35 149 -3 48 32 71 31 126 -5 55 -36 81 -38 123 -6 51 39 79 42 114 12 39 -33 54 -33 105 4 53 39 93 39 138 0 43 -36 64 -37 105 -6 48 37 77 41 116 17 19 -12 40 -21 48 -21 8 0 -8 11 -34 25 -55 30 -84 27 -136 -11 -43 -31 -59 -30 -94 6 -21 22 -38 30 -62 30 -37 0 -82 -20 -102 -44 -20 -24 -51 -19 -83 11 -26 24 -30 26 -66 15 -21 -7 -47 -21 -57 -32 -25 -28 -63 -25 -115 10 -55 36 -80 37 -128 5 -47 -32 -73 -31 -147 3 -130 62 -169 61 -228 -2 -49 -52 -72 -54 -165 -12 -104 47 -142 47 -193 1 -60 -54 -77 -54 -166 -1 -43 25 -89 46 -103 46 -14 0 -50 -13 -80 -29 -30 -16 -69 -32 -86 -35 -35 -8 -91 11 -113 37 -22 27 -71 20 -131 -18 -30 -19 -60 -35 -67 -35 -7 0 -30 16 -52 35 -21 19 -43 35 -49 35 -6 0 -27 -14 -47 -31 -40 -35 -61 -33 -71 7 -6 23 -1 33 34 66 51 48 77 48 131 2 l42 -36 58 36 c69 42 95 45 140 12 52 -39 81 -41 155 -11 139 56 171 55 240 -6 24 -21 49 -39 55 -39 7 0 34 18 62 40 73 58 106 61 190 16 90 -46 122 -46 182 0 65 51 105 54 198 16 114 -48 120 -48 192 -13 35 17 70 31 79 31 8 0 33 -13 54 -28 58 -42 67 -43 124 -16 64 29 90 30 124 3 32 -25 35 -15 4 12 -30 24 -72 24 -127 -1 -57 -26 -77 -25 -113 5 -46 39 -72 41 -129 11 -66 -34 -113 -33 -201 4 -97 42 -133 40 -199 -10z"></path><path d="M2312 2963 c-23 -15 -42 -32 -42 -37 0 -5 10 0 23 12 54 51 140 57 189 13 l32 -28 54 28 c66 35 78 36 124 4 20 -14 43 -22 52 -19 18 7 40 -31 31 -54 -5 -14 -4 -15 7 -4 17 17 -10 67 -37 67 -11 0 -37 11 -58 24 -45 27 -79 24 -134 -13 l-36 -25 -34 29 c-46 41 -111 42 -171 3z"></path><path d="M1472 2940 c-74 -50 -101 -50 -191 -4 -84 45 -116 42 -189 -16 -27 -22 -56 -40 -64 -40 -8 0 -25 12 -39 26 -13 15 -43 35 -67 46 -50 22 -72 20 -179 -23 -39 -16 -80 -29 -91 -29 -10 0 -39 13 -63 30 -57 38 -83 38 -146 -5 -29 -19 -55 -35 -59 -35 -3 0 -24 16 -47 35 -51 44 -80 44 -123 1 -37 -37 -42 -57 -19 -76 13 -11 21 -8 48 18 41 40 65 40 102 2 37 -38 57 -37 125 5 30 19 62 35 72 35 10 0 37 -13 60 -30 54 -40 98 -39 174 1 81 43 115 41 193 -10 76 -49 108 -52 153 -12 72 62 92 64 198 16 97 -44 120 -44 167 -1 77 68 107 71 212 21 88 -42 134 -45 181 -10 43 32 56 31 112 -4 68 -43 78 -44 128 -11 50 33 100 39 120 14 29 -34 45 -34 101 1 65 43 91 44 136 5 41 -37 69 -38 113 -5 38 28 85 32 114 10 22 -17 52 -20 60 -6 10 16 -6 42 -21 37 -8 -3 -31 5 -51 19 -47 32 -58 31 -126 -4 l-56 -30 -30 31 c-29 28 -35 30 -85 26 -42 -4 -64 -12 -93 -35 l-38 -31 -27 24 c-36 31 -61 30 -131 -2 l-57 -26 -52 36 c-29 20 -59 36 -66 36 -8 0 -43 -14 -78 -31 -72 -35 -78 -35 -190 11 -95 40 -118 38 -191 -10z"></path><path d="M760 2783 c-190 -4 -523 -23 -560 -33 -31 -9 -30 -9 15 -5 227 21 518 27 1340 26 859 0 987 -3 1150 -28 22 -3 37 -3 34 1 -4 4 -58 14 -120 22 -93 12 -262 16 -929 17 -448 1 -867 1 -930 0z"></path><path d="M740 2759 c-162 -3 -331 -9 -375 -13 -179 -15 -195 -17 -195 -33 0 -17 131 -16 765 7 228 9 466 9 900 1 717 -13 905 -14 905 -2 0 18 -153 33 -380 37 -431 7 -1321 9 -1620 3z"></path><path d="M790 2701 c-63 -4 137 -5 445 -3 308 2 567 5 575 6 25 6 -898 2 -1020 -3z"></path><path d="M2043 2693 c119 -2 315 -2 435 0 119 1 21 2 -218 2 -239 0 -337 -1 -217 -2z"></path><path d="M195 2680 c29 -7 220 -12 200 -5 -5 2 -59 5 -120 8 -60 2 -96 0 -80 -3z"></path><path d="M473 2683 c37 -2 97 -2 135 0 37 2 6 3 -68 3 -74 0 -105 -1 -67 -3z"></path><path d="M472 2620 c-23 -17 -42 -35 -42 -41 0 -6 18 5 40 25 57 51 84 48 145 -14 27 -27 57 -50 67 -50 9 0 32 13 50 29 77 66 124 69 197 11 28 -22 55 -40 60 -40 5 0 17 10 25 21 24 34 68 59 106 59 43 0 96 -31 112 -65 6 -14 15 -25 20 -25 16 0 -34 61 -66 81 -57 35 -146 14 -176 -40 -6 -12 -14 -21 -18 -21 -4 0 -31 18 -61 40 -76 57 -118 55 -202 -11 -20 -16 -43 -29 -50 -29 -7 0 -35 23 -61 50 -57 60 -86 64 -146 20z"></path><path d="M1374 2628 c-17 -4 -51 -26 -75 -49 l-44 -40 53 40 c72 55 118 56 192 6 62 -42 85 -43 136 -9 89 61 138 64 208 10 62 -47 87 -44 175 19 55 40 123 27 210 -39 43 -32 56 -32 117 1 96 52 105 55 130 49 14 -4 45 -25 69 -47 53 -49 66 -48 144 11 55 41 88 47 116 19 5 -5 -5 -4 -23 2 -27 9 -36 8 -55 -5 -64 -48 -113 -76 -130 -76 -10 0 -30 14 -44 30 -33 40 -79 63 -109 56 -13 -4 -45 -20 -70 -36 -73 -46 -98 -47 -150 -11 -54 39 -105 61 -141 61 -16 0 -53 -17 -88 -41 -68 -46 -93 -47 -150 -4 -71 55 -128 52 -208 -9 -45 -35 -78 -33 -138 9 -75 51 -120 49 -192 -10 -31 -25 -58 -45 -61 -45 -3 0 -12 13 -21 30 -19 36 -62 60 -110 60 -28 0 -45 -9 -79 -40 -24 -22 -46 -40 -50 -40 -4 0 -29 18 -57 40 -73 58 -120 55 -197 -11 -18 -16 -41 -29 -50 -29 -10 0 -40 23 -67 50 -64 65 -89 66 -155 4 l-50 -46 -29 31 c-24 26 -37 31 -73 31 -54 0 -104 -30 -123 -73 -8 -17 -14 -25 -15 -16 0 23 36 67 70 84 16 8 48 15 70 15 33 0 48 -6 72 -31 24 -23 33 -27 42 -18 8 8 8 10 0 6 -6 -4 -23 7 -38 22 -37 39 -78 46 -130 22 -56 -25 -90 -64 -91 -105 -1 -30 1 -32 24 -28 14 2 42 22 62 43 20 22 44 39 52 39 9 0 38 -13 64 -30 63 -40 86 -39 120 8 50 67 58 67 127 2 62 -59 98 -65 137 -24 28 31 70 54 97 54 10 0 37 -16 60 -36 23 -19 55 -39 72 -44 26 -7 35 -4 77 31 63 52 92 60 112 28 9 -13 28 -37 44 -53 35 -36 65 -30 124 25 59 54 89 52 189 -16 57 -39 94 -33 162 26 45 39 83 38 157 -7 32 -20 74 -38 92 -41 29 -5 38 -1 68 31 62 66 94 65 202 -5 65 -43 107 -52 148 -34 18 8 19 7 6 -8 -25 -31 -81 -21 -159 29 -40 26 -89 48 -110 51 -34 5 -41 1 -69 -30 -59 -68 -78 -69 -177 -9 -81 49 -124 48 -177 -4 -51 -50 -85 -50 -164 -1 -65 40 -117 48 -151 22 -10 -8 -14 -15 -7 -15 6 0 15 5 18 10 14 22 80 10 134 -24 87 -57 116 -56 186 5 47 42 84 42 152 0 102 -63 127 -62 191 7 28 30 36 34 68 29 19 -3 67 -26 106 -51 86 -55 131 -61 169 -20 26 29 70 54 92 54 8 0 40 -21 72 -47 73 -60 104 -61 178 -5 29 22 66 42 82 45 l30 4 -31 2 c-23 1 -45 -10 -83 -40 -68 -55 -105 -56 -159 -7 -22 20 -50 42 -62 48 -25 14 -66 6 -95 -18 -12 -9 -8 -5 7 11 41 39 77 36 133 -13 75 -65 100 -64 190 4 26 20 58 36 71 36 21 0 24 4 22 31 -3 38 -37 64 -72 55 -13 -3 -43 -22 -66 -41 -66 -55 -82 -55 -140 -1 -60 56 -87 58 -156 15 -81 -52 -106 -55 -159 -19 -103 71 -150 76 -226 23 -67 -46 -100 -47 -159 -5 -71 51 -103 51 -182 3 -37 -23 -76 -41 -87 -41 -11 0 -40 14 -63 30 -54 38 -94 49 -134 38z"></path><path d="M491 2529 c-18 -22 -43 -44 -55 -49 -15 -6 -16 -9 -5 -9 16 -1 89 66 89 81 0 23 46 2 95 -42 34 -31 64 -50 79 -50 14 0 44 17 71 40 57 49 91 52 137 11 74 -63 105 -66 164 -11 27 25 53 40 69 40 14 0 25 -4 25 -8 0 -4 15 -25 34 -45 24 -27 42 -37 64 -37 30 0 82 33 82 52 0 6 -11 -1 -25 -16 -43 -46 -94 -33 -140 38 -25 37 -58 33 -109 -14 -26 -24 -53 -40 -68 -40 -24 0 -98 46 -113 69 -8 14 -61 14 -88 0 -12 -6 -34 -24 -49 -40 -40 -43 -70 -38 -132 21 -29 28 -62 50 -73 50 -11 0 -34 -18 -52 -41z"></path><path d="M246 2503 c-17 -19 -39 -39 -50 -43 -17 -7 -18 -9 -4 -9 10 -1 34 17 54 39 44 47 65 49 117 14 21 -14 40 -24 42 -22 3 2 -14 16 -37 31 -56 36 -86 34 -122 -10z"></path><path d="M830 2409 c-405 -7 -644 -20 -658 -34 -4 -4 11 -5 33 -1 240 35 2396 44 2490 10 15 -5 17 -4 9 5 -25 27 -949 37 -1874 20z"></path><path d="M940 2390 c-261 -4 -515 -10 -565 -14 -182 -14 -217 -18 -209 -26 11 -10 2544 0 2544 10 0 17 -62 21 -430 30 -416 10 -611 10 -1340 0z"></path><path d="M2720 2360 c0 -5 5 -10 10 -10 6 0 10 5 10 10 0 6 -4 10 -10 10 -5 0 -10 -4 -10 -10z"></path><path d="M832 2323 c346 -2 910 -2 1255 0 346 1 63 2 -627 2 -690 0 -973 -1 -628 -2z"></path><path d="M712 2260 c-18 -11 -41 -34 -50 -50 -19 -34 -33 -37 -53 -13 -30 36 -93 73 -124 73 -18 0 -49 -11 -70 -25 l-37 -26 -54 28 -54 27 -35 -18 c-41 -22 -69 -61 -71 -98 -3 -57 48 -61 86 -7 26 36 48 37 96 4 48 -33 58 -32 100 10 45 45 80 46 120 4 40 -43 80 -62 102 -50 9 5 37 30 62 55 53 55 84 59 132 18 85 -74 109 -78 158 -27 19 19 42 35 51 35 9 0 42 -21 73 -47 75 -61 99 -61 165 0 28 26 57 47 66 47 25 0 56 -19 108 -67 60 -55 80 -53 152 18 28 27 58 49 68 49 9 0 45 -25 78 -56 63 -58 78 -62 133 -39 14 6 17 5 12 -4 -14 -21 -54 -31 -83 -20 -15 5 -51 32 -80 60 -28 27 -55 49 -58 49 -14 0 109 -106 136 -117 37 -17 64 -6 114 46 24 26 48 41 63 41 13 0 51 -20 84 -45 33 -25 70 -45 82 -45 22 0 86 57 86 75 0 6 -9 -1 -20 -15 -11 -14 -20 -20 -20 -14 0 19 69 74 91 74 21 0 58 -36 58 -55 0 -5 -11 4 -24 20 -14 17 -25 25 -25 20 0 -6 22 -33 50 -60 l50 -49 43 42 c58 56 86 56 161 -3 32 -25 69 -45 82 -45 24 0 104 64 104 83 0 6 -17 -8 -38 -31 -50 -54 -73 -54 -146 3 -75 58 -117 61 -159 13 l-29 -33 22 33 c42 63 92 66 154 12 45 -40 83 -59 107 -53 10 3 35 22 54 42 27 27 35 43 33 66 -5 69 -41 73 -96 10 l-39 -44 -29 30 c-16 17 -41 37 -56 45 -52 27 -132 12 -168 -31 -12 -14 -16 -13 -44 13 -70 67 -98 67 -169 2 -30 -27 -58 -50 -62 -50 -4 0 -25 17 -46 39 -21 21 -53 44 -70 51 -37 16 -70 3 -137 -54 -24 -20 -51 -36 -59 -36 -8 0 -31 18 -51 41 -45 50 -86 73 -118 65 -13 -4 -49 -29 -79 -56 -30 -28 -60 -50 -65 -50 -5 0 -29 20 -54 44 -72 72 -144 74 -218 5 -23 -21 -44 -39 -46 -39 -9 0 -48 25 -89 56 -25 19 -56 34 -70 34 -30 0 -79 -33 -94 -63 -10 -21 -9 -21 5 -3 23 29 68 56 92 56 12 0 48 -20 80 -45 66 -51 87 -55 110 -20 18 28 89 65 124 65 31 0 103 -43 124 -75 9 -14 23 -25 31 -25 8 0 40 22 70 50 30 27 66 52 79 56 33 8 77 -17 116 -66 17 -22 40 -40 50 -40 10 0 41 18 69 40 28 22 63 45 77 50 33 13 79 -7 123 -54 41 -42 47 -43 79 -13 16 14 23 17 20 7 -3 -8 -16 -22 -31 -30 -25 -14 -28 -13 -69 27 -77 75 -112 75 -206 -2 -24 -19 -52 -35 -62 -35 -11 0 -34 18 -52 41 -39 48 -81 73 -112 65 -12 -3 -48 -28 -80 -56 -31 -27 -63 -50 -70 -50 -6 0 -28 17 -48 39 -72 75 -139 78 -213 10 -23 -21 -49 -39 -57 -39 -9 0 -38 18 -66 40 -74 59 -100 61 -154 11 l-45 -41 -29 31 c-75 80 -188 77 -242 -6 -12 -19 -27 -35 -32 -35 -6 0 -35 20 -66 45 -65 54 -106 59 -152 20 -37 -31 -41 -31 -102 1 -58 30 -77 27 -119 -22 -17 -19 -31 -31 -31 -26 0 14 78 82 92 82 7 0 36 -12 65 -27 l53 -26 38 26 c21 15 52 27 69 27 29 0 93 -38 122 -73 20 -25 37 -21 59 16 23 40 76 67 129 67 42 0 133 -49 133 -71 0 -7 3 -9 7 -6 10 10 -27 47 -69 68 -49 25 -114 24 -156 -1z m1621 -11 c12 -6 36 -25 53 -41 28 -26 32 -27 44 -13 34 41 116 58 163 34 12 -6 38 -26 57 -45 37 -35 46 -35 73 8 23 37 52 52 75 38 16 -11 16 -11 0 -6 -27 8 -44 -2 -72 -45 -15 -21 -31 -39 -36 -39 -5 0 -22 14 -37 31 -16 17 -40 37 -55 45 -55 28 -144 9 -168 -36 -11 -20 -12 -19 -37 10 -26 32 -72 60 -96 60 -8 0 -31 -11 -51 -25 -21 -14 -34 -20 -31 -14 10 15 67 49 83 49 7 0 23 -5 35 -11z m-233 -105 c53 -41 66 -46 96 -41 30 5 34 4 24 -8 -21 -25 -56 -17 -110 26 -78 61 -97 64 -145 20 -34 -31 -36 -32 -15 -6 57 69 68 70 150 9z m335 -44 c15 0 16 -3 7 -12 -10 -10 -18 -6 -40 17 -15 16 -18 22 -6 12 11 -9 29 -17 39 -17z"></path><path d="M780 2203 c-8 -3 -36 -27 -61 -54 -29 -31 -54 -49 -68 -49 -13 0 -45 20 -73 45 -28 25 -60 45 -72 45 -11 -1 -43 -21 -69 -45 -61 -56 -55 -59 8 -5 25 22 52 40 60 40 7 0 37 -20 66 -45 70 -60 90 -59 151 7 61 64 88 67 150 16 46 -38 80 -58 97 -58 6 0 28 16 50 35 21 19 46 35 56 35 10 0 43 -20 73 -45 37 -31 64 -45 84 -45 23 0 42 12 75 45 60 61 86 60 158 -5 75 -68 98 -67 172 5 30 31 54 58 51 60 -2 2 -29 -20 -58 -50 -71 -71 -91 -72 -165 -5 -74 67 -104 68 -165 5 -31 -32 -52 -45 -72 -45 -18 0 -44 15 -78 45 -64 57 -94 59 -137 10 -17 -19 -37 -35 -45 -35 -14 0 -48 21 -100 61 -37 30 -65 40 -88 32z"></path><path d="M248 2136 c-17 -20 -39 -36 -55 -39 l-28 -4 27 -2 c20 -1 37 9 59 34 18 19 35 35 39 35 4 0 24 -11 44 -25 47 -32 56 -32 19 -1 -49 41 -74 42 -105 2z"></path><path d="M2275 2160 c-7 -12 2 -12 30 0 19 8 19 9 -2 9 -12 1 -25 -3 -28 -9z"></path><path d="M759 2041 c-575 -6 -599 -8 -599 -42 0 -5 8 -1 18 9 18 18 66 19 993 25 568 4 1080 3 1229 -3 288 -10 346 -10 245 1 -99 11 -1216 17 -1886 10z"></path><path d="M823 2020 c-347 -3 -635 -8 -639 -13 -4 -4 -3 -12 4 -19 13 -13 -70 -12 1459 -7 584 2 1065 7 1069 12 4 4 5 9 3 11 -10 10 -653 26 -949 24 -173 -2 -599 -5 -947 -8z"></path><path d="M1373 1973 c26 -2 68 -2 95 0 26 2 4 3 -48 3 -52 0 -74 -1 -47 -3z"></path><path d="M988 1963 c61 -2 163 -2 225 0 61 1 11 3 -113 3 -124 0 -174 -2 -112 -3z"></path><path d="M1668 1963 c61 -2 163 -2 225 0 61 1 11 3 -113 3 -124 0 -174 -2 -112 -3z"></path><path d="M2568 1963 c23 -2 61 -2 85 0 23 2 4 4 -43 4 -47 0 -66 -2 -42 -4z"></path><path d="M367 1953 c90 -2 236 -2 326 0 89 1 16 3 -163 3 -179 0 -252 -2 -163 -3z"></path><path d="M2143 1953 c70 -2 184 -2 255 0 70 1 12 3 -128 3 -140 0 -198 -2 -127 -3z"></path><path d="M563 1905 c-17 -7 -43 -29 -58 -49 -15 -20 -32 -36 -38 -36 -6 0 -28 16 -48 36 -52 51 -109 58 -150 19 -16 -16 -29 -33 -29 -38 0 -5 12 5 26 22 18 22 35 31 55 31 28 0 89 -24 89 -36 0 -2 -13 2 -30 11 -57 30 -106 12 -130 -46 l-13 -31 -19 36 c-12 23 -26 36 -38 36 -18 0 -20 -6 -19 -51 2 -56 24 -82 82 -95 29 -6 35 -2 74 41 l42 48 36 -31 c27 -24 45 -32 74 -32 34 0 45 6 79 45 22 25 46 45 54 45 8 0 41 -22 72 -50 74 -65 98 -66 166 -5 58 52 63 51 137 -16 58 -53 87 -52 157 6 31 25 65 45 76 45 12 0 47 -19 80 -41 51 -37 63 -41 96 -36 22 4 50 19 68 36 51 49 81 49 151 2 85 -58 118 -55 170 16 l28 38 -44 -42 c-28 -27 -54 -43 -69 -43 -14 0 -52 18 -84 40 -67 46 -104 49 -139 12 -28 -31 -70 -52 -100 -52 -14 0 -49 18 -78 40 -72 54 -98 53 -160 -5 -56 -52 -89 -57 -134 -20 -16 13 -25 24 -19 25 6 0 17 -7 24 -15 7 -9 29 -15 51 -15 31 0 48 8 89 45 28 25 59 45 69 45 9 0 42 -18 71 -40 74 -55 139 -52 194 9 30 33 72 27 140 -19 32 -22 67 -40 78 -40 10 0 38 18 62 40 52 48 76 50 136 10 60 -40 108 -40 175 0 69 41 115 40 185 -5 30 -19 60 -35 66 -35 5 0 41 16 79 34 63 32 70 34 95 21 14 -7 33 -21 40 -30 23 -28 70 -47 100 -40 16 3 49 20 74 36 43 29 46 29 75 15 54 -28 54 23 0 69 -39 32 -62 32 -129 -5 -30 -16 -62 -29 -70 -30 -9 0 -39 18 -69 40 -29 22 -58 40 -65 40 -6 0 -36 -16 -66 -35 -30 -19 -65 -35 -79 -35 -14 0 -56 16 -94 36 -84 43 -125 42 -189 -5 -54 -40 -79 -39 -135 4 -25 19 -56 35 -68 35 -22 0 -88 -43 -114 -73 -21 -26 -40 -21 -87 23 -56 51 -87 52 -188 4 -69 -33 -79 -35 -106 -24 -16 7 -35 19 -41 27 -23 27 -69 45 -100 38 -16 -4 -50 -24 -75 -46 -25 -21 -55 -39 -67 -39 -12 0 -47 20 -77 45 -40 33 -64 45 -88 45 -26 0 -42 -10 -76 -45 -25 -25 -50 -45 -58 -45 -8 0 -31 18 -53 40 -49 50 -81 62 -122 45z m115 -50 c27 -25 56 -45 63 -45 7 0 32 20 56 45 34 36 50 45 76 45 25 0 46 -11 86 -45 64 -54 95 -58 136 -15 37 38 91 63 121 56 13 -4 38 -19 56 -35 53 -46 69 -46 157 -7 43 20 88 36 100 36 29 0 71 -22 100 -54 14 -14 33 -26 42 -26 10 0 41 20 69 45 28 25 58 45 66 45 20 0 52 -17 87 -46 34 -29 76 -31 108 -5 39 30 86 51 114 51 14 0 56 -16 92 -35 78 -41 120 -44 160 -11 31 26 67 46 81 46 6 0 29 -16 52 -35 60 -50 77 -52 148 -16 34 17 71 31 82 31 26 0 80 -52 80 -77 0 -11 -7 -5 -18 17 -27 56 -59 60 -140 21 -78 -38 -91 -37 -153 15 -22 19 -45 34 -51 34 -14 0 -50 -20 -81 -46 -39 -33 -80 -30 -161 11 -39 19 -80 35 -93 35 -26 0 -74 -22 -112 -51 -32 -26 -74 -24 -108 5 -35 29 -67 46 -87 46 -8 0 -38 -20 -66 -45 -28 -25 -59 -45 -69 -45 -9 0 -28 12 -42 26 -29 32 -71 54 -100 54 -12 0 -57 -16 -100 -36 -88 -39 -104 -39 -157 7 -18 16 -43 31 -56 35 -30 7 -84 -18 -121 -56 -41 -43 -72 -39 -136 15 -38 32 -62 45 -84 45 -23 0 -41 -11 -75 -45 -24 -25 -50 -45 -58 -45 -8 0 -37 20 -64 45 -69 62 -100 61 -162 -2 -45 -47 -47 -48 -73 -33 -14 8 -28 22 -31 30 -3 10 4 7 20 -7 13 -13 29 -23 34 -23 5 0 29 20 52 45 34 36 49 45 76 45 26 0 45 -10 84 -45z m-18 -40 c45 -46 92 -68 122 -56 12 5 39 25 57 45 43 44 69 45 107 4 l29 -32 -33 27 c-19 15 -40 27 -49 27 -8 0 -34 -20 -59 -45 -59 -62 -86 -61 -159 5 -30 28 -62 50 -71 50 -9 0 -35 -20 -58 -45 -55 -59 -97 -62 -154 -11 l-38 35 -35 -47 c-30 -40 -40 -47 -67 -46 -36 2 -82 28 -82 46 0 6 8 3 19 -6 11 -10 37 -20 59 -23 38 -5 42 -3 66 35 35 56 42 58 75 23 15 -16 40 -33 56 -37 37 -9 90 17 110 56 22 42 61 41 105 -5z"></path><path d="M178 1873 c13 -3 32 -19 43 -36 10 -18 19 -27 19 -21 0 23 -42 64 -63 63 -21 -2 -21 -2 1 -6z"></path><path d="M1845 1799 c22 -11 56 -29 75 -40 49 -27 71 -24 147 16 36 19 74 35 85 35 28 0 89 -28 115 -52 29 -27 86 -21 139 16 49 33 32 34 -21 1 -54 -34 -88 -32 -136 7 -57 46 -123 45 -196 -2 -63 -39 -95 -38 -168 9 -27 17 -56 31 -64 31 -9 0 2 -10 24 -21z"></path><path d="M2468 1799 c13 -5 42 -25 65 -44 53 -46 96 -47 160 -4 36 24 54 30 75 25 20 -5 23 -4 12 4 -22 15 -56 12 -71 -6 -20 -25 -65 -44 -102 -44 -26 0 -46 10 -80 40 -25 22 -53 40 -64 39 -14 0 -13 -2 5 -10z"></path><path d="M960 1689 c-223 -5 -486 -13 -585 -18 l-180 -10 200 5 c991 21 2206 27 2280 10 30 -6 30 -6 5 6 -31 15 -1088 19 -1720 7z"></path><path d="M1330 1673 c-377 -3 -1160 -26 -1160 -33 0 -18 52 -21 394 -27 243 -4 523 0 856 11 754 24 878 26 1095 18 110 -4 202 -4 203 0 2 5 9 5 15 1 7 -4 6 1 -2 10 -15 19 -26 23 -15 5 5 -7 2 -9 -9 -5 -67 26 -314 29 -1377 20z"></path><path d="M1535 1614 c-342 -13 -1133 -19 -1227 -9 -45 5 -49 4 -28 -6 37 -17 773 -16 1190 1 190 8 545 15 790 15 245 0 420 3 390 7 -91 10 -763 6 -1115 -8z"></path><path d="M1375 1560 c-11 -4 -36 -25 -55 -46 l-35 -38 43 37 c23 20 51 37 63 37 11 0 39 -16 62 -35 48 -42 69 -43 113 -10 41 32 68 32 106 0 l30 -25 39 35 c22 19 45 35 53 35 8 0 48 -13 89 -30 42 -16 79 -30 84 -30 4 0 28 14 52 30 24 17 53 30 65 30 12 0 48 -18 81 -40 33 -22 67 -40 75 -40 9 0 40 16 70 35 73 46 108 46 155 0 19 -20 35 -31 35 -26 0 5 -17 23 -37 40 -49 41 -84 39 -153 -4 -30 -19 -61 -35 -70 -35 -8 0 -41 18 -74 40 -69 47 -97 50 -144 14 -43 -33 -75 -33 -148 0 -73 34 -86 33 -132 -8 l-37 -34 -30 24 c-38 31 -70 30 -111 -1 -43 -33 -57 -32 -107 8 -55 44 -59 46 -82 37z"></path><path d="M1136 1520 c-52 -49 -76 -50 -141 -9 -75 47 -104 48 -152 5 -22 -20 -47 -36 -54 -36 -8 0 -34 14 -58 30 -24 17 -49 30 -55 30 -6 0 -28 -11 -48 -25 -48 -32 -70 -32 -123 5 -55 38 -81 38 -121 -1 l-32 -31 -38 26 c-50 34 -64 33 -100 -6 -16 -17 -23 -28 -16 -24 16 10 15 0 -4 -29 -19 -29 -12 -75 12 -75 14 0 14 -3 3 -17 -7 -10 5 -1 27 20 45 42 63 46 89 17 26 -29 46 -25 90 20 31 32 45 40 63 35 15 -4 21 -2 17 5 -13 21 -45 9 -81 -30 -43 -47 -57 -49 -88 -15 -30 32 -51 32 -72 0 -9 -14 -19 -23 -22 -20 -8 8 40 55 57 55 8 0 27 -11 41 -25 32 -30 49 -26 85 21 33 43 58 43 106 -1 22 -19 43 -35 47 -35 4 0 29 14 55 30 56 35 77 37 101 11 10 -11 33 -27 52 -36 l35 -16 44 40 c25 23 52 41 61 41 10 0 45 -16 80 -35 34 -19 71 -35 82 -35 11 0 42 18 70 40 27 22 56 40 64 40 8 0 29 -16 48 -35 19 -19 41 -35 49 -35 9 0 29 16 44 35 33 42 55 44 88 9 32 -35 74 -55 96 -47 10 3 31 17 46 30 16 13 36 23 46 23 19 0 75 -53 69 -66 -1 -5 4 -10 13 -12 9 -1 35 17 58 41 49 51 62 51 125 6 49 -36 80 -36 128 -4 53 36 99 33 151 -9 74 -59 83 -61 127 -31 21 15 46 35 56 46 30 33 65 24 107 -26 21 -25 45 -45 53 -45 8 0 34 19 58 43 28 28 30 31 6 11 -60 -54 -83 -50 -125 17 -22 34 -29 38 -53 33 -15 -4 -48 -24 -74 -45 -26 -22 -57 -39 -71 -39 -14 0 -44 16 -68 35 -74 63 -100 67 -159 25 -48 -34 -75 -35 -127 -4 -79 47 -86 47 -134 -2 -24 -24 -50 -44 -59 -43 -10 0 -9 3 5 9 11 4 37 26 58 49 45 47 64 50 105 16 56 -47 78 -49 147 -14 73 37 94 35 155 -16 56 -47 85 -53 118 -26 105 84 129 87 174 21 15 -22 36 -40 46 -40 9 0 39 18 66 40 26 22 52 40 57 40 11 0 49 -60 49 -75 -1 -9 -8 -1 -38 42 -10 15 -11 14 -1 -7 17 -38 50 -70 72 -70 26 0 100 75 95 97 -2 10 -10 18 -18 18 -8 0 -15 5 -15 12 0 6 -3 14 -7 18 -8 8 -58 -24 -58 -38 0 -6 10 -1 23 11 13 12 27 22 30 22 4 0 -8 -14 -28 -31 -29 -26 -38 -29 -50 -19 -8 7 -15 18 -15 24 0 6 7 3 14 -6 7 -10 17 -18 22 -18 4 0 -10 18 -31 40 -21 22 -46 40 -55 40 -23 0 -110 -57 -110 -72 0 -6 12 0 28 14 55 51 93 58 124 21 11 -14 9 -14 -14 1 -33 22 -58 15 -107 -30 l-38 -33 -43 44 c-54 55 -88 59 -148 15 -66 -48 -83 -48 -155 -1 -35 23 -72 41 -83 41 -10 0 -39 -14 -63 -30 -24 -17 -48 -30 -53 -30 -5 0 -43 14 -85 30 -85 34 -113 32 -145 -11 -26 -35 -29 -35 -66 -4 -17 14 -40 25 -52 25 -12 0 -35 -11 -52 -25 -40 -34 -67 -31 -115 10 -23 19 -51 35 -62 35 -12 0 -37 -16 -57 -35 -37 -37 -53 -37 -84 0 -36 43 -77 37 -129 -19 -33 -35 -61 -33 -135 9 -35 19 -73 35 -85 35 -13 0 -36 -15 -54 -35 -37 -42 -58 -44 -109 -9 -46 32 -78 33 -114 5 -36 -29 -71 -26 -123 9 -55 38 -72 38 -116 -1 l-35 -31 -41 28 c-41 28 -41 28 -72 11 -23 -14 -27 -14 -18 -3 24 29 51 29 91 1 l40 -27 35 31 c44 39 59 39 118 1 55 -35 79 -37 115 -11 48 33 65 33 113 1 24 -16 52 -30 61 -30 10 0 33 16 52 35 20 19 45 35 57 35 12 0 50 -16 85 -35 74 -42 102 -44 135 -9 13 14 36 32 52 40 23 13 31 13 56 0 16 -9 31 -22 34 -31 4 -8 12 -15 19 -15 20 1 -63 70 -84 70 -10 0 -38 -18 -62 -40z m1649 -95 c-29 -39 -70 -55 -88 -35 -10 10 -8 12 6 7 27 -10 73 18 89 53 7 17 15 25 16 20 2 -6 -8 -26 -23 -45z"></path><path d="M1150 1440 c-55 -48 -76 -49 -158 -6 -74 40 -102 37 -139 -10 -14 -19 -33 -34 -42 -34 -10 0 -40 16 -67 35 -27 19 -54 35 -60 35 -6 0 -31 -13 -55 -30 -54 -37 -73 -37 -104 -4 -14 15 -25 22 -25 16 0 -15 49 -52 69 -52 10 0 32 11 51 25 44 33 78 32 126 -5 52 -39 77 -38 110 5 34 45 70 46 139 5 68 -40 98 -39 154 8 43 37 81 46 89 23 2 -5 19 -22 38 -36 34 -26 36 -27 56 -8 11 10 29 32 40 48 14 22 11 20 -12 -7 -18 -21 -40 -38 -49 -38 -9 0 -32 16 -51 35 -19 19 -41 35 -49 35 -9 0 -36 -18 -61 -40z"></path><path d="M1445 1435 c58 -51 85 -55 127 -20 35 29 64 32 92 8 20 -18 20 -18 5 7 -23 35 -49 36 -93 0 -22 -16 -47 -30 -57 -30 -10 0 -39 18 -64 40 -25 22 -49 40 -53 40 -4 0 16 -20 43 -45z"></path><path d="M170 1449 c-6 -11 -10 -27 -8 -35 2 -8 8 1 14 20 12 40 10 46 -6 15z"></path><path d="M481 1319 c-90 -5 -184 -13 -210 -19 l-46 -9 45 4 c213 20 623 26 1460 22 514 -2 949 -7 965 -11 l30 -6 -30 12 c-37 15 -1955 21 -2214 7z"></path><path d="M519 1300 c-239 -12 -299 -19 -299 -37 0 -15 28 -15 278 -7 152 5 712 9 1244 9 531 0 970 3 974 8 13 12 0 16 -92 26 -102 12 -1876 12 -2105 1z"></path><path d="M710 1248 c-74 -5 -213 -10 -308 -11 -112 -1 -165 -4 -150 -10 25 -10 218 -5 593 13 184 9 374 9 813 1 520 -11 942 -7 999 8 37 10 -1802 9 -1947 -1z"></path><path d="M571 1174 c-18 -8 -49 -28 -68 -44 -18 -17 -41 -30 -50 -30 -8 0 -33 16 -54 35 -51 46 -99 48 -130 6 l-21 -29 -24 26 c-19 22 -26 25 -41 16 -29 -18 -28 -67 2 -100 15 -16 23 -23 19 -15 -4 9 -2 12 7 9 8 -3 14 -11 14 -19 0 -20 42 -23 68 -6 26 17 63 77 48 77 -6 0 -11 -6 -11 -14 0 -26 -48 -66 -77 -65 -27 2 -27 2 -3 6 31 6 59 30 71 61 11 29 23 28 57 -5 15 -16 18 -19 5 -9 -13 11 -24 18 -26 15 -2 -2 12 -17 32 -34 19 -16 32 -24 27 -18 -5 9 1 11 22 7 30 -6 57 5 121 51 19 14 42 25 52 25 21 0 79 -47 79 -63 0 -7 -11 2 -24 18 -13 17 -27 27 -30 24 -10 -9 91 -99 111 -99 11 1 4 7 -16 16 -19 8 -31 17 -28 21 4 3 13 0 21 -6 9 -7 24 -10 37 -6 15 5 19 4 14 -5 -12 -20 27 5 54 34 34 36 61 33 117 -14 27 -22 59 -40 71 -40 14 0 38 16 60 40 46 49 70 50 138 10 28 -16 55 -30 60 -30 6 0 -17 16 -50 35 -79 45 -102 45 -150 -5 -21 -22 -48 -40 -60 -40 -11 0 -42 18 -69 40 -60 50 -96 53 -126 10 -12 -16 -26 -30 -33 -30 -6 0 4 16 23 35 45 47 74 46 138 -5 27 -22 58 -40 69 -40 10 0 37 18 58 40 23 23 48 40 62 40 12 0 53 -16 91 -36 81 -43 92 -41 163 22 27 24 57 44 65 44 24 0 55 -19 109 -67 43 -39 54 -44 82 -40 24 4 32 2 27 -6 -3 -7 9 4 28 23 19 19 32 37 30 40 -2 3 -15 -8 -28 -23 -13 -15 -24 -24 -24 -19 0 12 41 47 63 56 11 3 50 -7 95 -25 74 -29 85 -30 126 -13 15 6 17 4 11 -7 -5 -8 4 -3 18 10 30 28 36 41 9 20 -10 -8 -7 -4 6 9 34 32 78 28 142 -12 30 -19 55 -40 55 -47 0 -7 7 -14 15 -16 13 -4 13 -3 0 6 -11 9 -4 10 27 5 40 -6 46 -4 88 35 24 22 50 41 57 41 6 0 36 -17 65 -37 l53 -36 23 20 c53 49 125 59 151 21 8 -12 13 -25 10 -29 -2 -4 1 -11 7 -15 8 -5 9 -3 4 6 -6 10 -4 12 9 7 12 -5 20 1 28 18 10 22 8 29 -17 55 -58 61 -150 64 -225 9 -13 -9 -24 -6 -54 15 -21 14 -47 26 -56 26 -10 0 -42 -16 -71 -37 -30 -20 -62 -36 -72 -35 -11 0 -47 19 -81 41 -90 59 -116 62 -193 20 l-63 -34 -83 29 c-98 34 -120 31 -177 -20 l-39 -36 -32 37 c-37 42 -77 65 -113 65 -13 0 -54 -16 -90 -35 -85 -45 -118 -45 -175 0 -60 48 -87 46 -155 -10 -31 -25 -59 -45 -62 -45 -3 0 -14 11 -25 24 -46 58 -125 58 -190 -1 l-40 -36 -47 45 c-57 55 -69 60 -111 42z m629 -29 c30 -25 52 -35 76 -35 19 0 62 15 100 35 36 19 78 35 92 35 35 0 84 -31 113 -69 13 -17 27 -31 32 -31 4 0 23 15 41 34 47 51 75 54 173 20 l83 -29 63 34 c76 41 100 39 184 -15 97 -62 87 -62 192 8 35 24 50 23 93 -7 44 -30 53 -31 79 -6 44 41 150 34 197 -13 22 -21 24 -28 14 -48 -11 -23 -11 -23 -6 2 7 33 -16 54 -74 69 -51 14 -105 6 -128 -20 -23 -25 -37 -24 -84 7 -47 31 -74 28 -125 -17 -20 -18 -46 -32 -60 -31 -13 0 -54 19 -91 42 -86 54 -126 60 -177 26 -58 -40 -79 -41 -165 -10 -92 32 -116 29 -163 -21 -41 -43 -52 -43 -78 -6 -27 37 -81 71 -113 71 -14 0 -55 -16 -91 -35 -86 -46 -122 -46 -177 0 -59 50 -85 46 -164 -22 -47 -40 -56 -40 -84 -8 -48 56 -121 55 -178 -1 -18 -19 -39 -34 -45 -34 -6 0 -29 20 -51 45 -53 60 -85 61 -159 5 -30 -22 -62 -40 -73 -40 -11 0 -34 16 -52 35 -23 25 -40 35 -62 35 -31 0 -35 -3 -71 -49 l-18 -25 -17 32 c-21 41 -46 42 -46 3 0 -17 5 -33 10 -36 6 -3 10 -12 10 -18 -1 -26 -30 28 -30 55 0 42 28 48 56 13 13 -16 25 -27 27 -25 1 3 11 17 20 33 26 41 79 38 123 -8 40 -42 63 -44 106 -6 78 67 117 68 178 6 24 -25 48 -45 53 -45 4 0 20 13 33 30 50 59 153 61 191 4 20 -31 28 -30 77 9 84 69 107 72 166 22z"></path><path d="M1392 1074 c-37 -36 -40 -41 -15 -25 18 12 36 29 41 37 16 29 62 24 101 -10 67 -60 94 -76 120 -75 24 1 24 2 -5 8 -17 5 -59 31 -93 59 -34 29 -71 52 -82 52 -11 0 -41 -21 -67 -46z"></path><path d="M542 1074 c-28 -20 -66 -40 -84 -44 -30 -7 -30 -8 -7 -9 15 -1 50 15 84 38 32 22 63 37 70 34 7 -2 16 0 20 6 14 24 -34 9 -83 -25z"></path><path d="M2043 1093 c9 -2 25 -2 35 0 9 3 1 5 -18 5 -19 0 -27 -2 -17 -5z"></path><path d="M2115 1077 c48 -33 75 -49 75 -44 0 6 -77 57 -87 57 -4 0 1 -6 12 -13z"></path><path d="M1785 1070 c27 -12 43 -12 25 0 -8 5 -22 9 -30 9 -10 0 -8 -3 5 -9z"></path><path d="M2331 1046 c-21 -21 -46 -37 -65 -39 l-31 -4 30 -1 c23 -2 41 8 74 38 23 22 39 40 34 40 -5 0 -24 -16 -42 -34z"></path><path d="M2430 1059 c43 -34 67 -43 30 -11 -19 17 -39 31 -45 31 -5 0 1 -8 15 -20z"></path><path d="M2600 1072 c0 -4 12 -7 28 -6 15 1 33 -3 40 -9 9 -7 11 -6 6 7 -6 16 -74 24 -74 8z"></path><path d="M2564 1059 c-3 -6 -20 -19 -38 -30 -17 -10 -25 -19 -19 -19 13 0 83 59 71 60 -4 0 -10 -5 -14 -11z"></path><path d="M1865 1039 c46 -21 64 -23 85 -9 11 8 9 9 -11 5 -15 -4 -43 0 -64 9 -52 22 -59 19 -10 -5z"></path><path d="M715 959 c-495 -10 -521 -11 -537 -27 -16 -16 -18 -38 -4 -40 74 -11 333 -12 532 -2 152 7 513 11 926 11 587 -2 1061 10 1077 25 16 16 -58 19 -417 16 -224 -1 -762 -4 -1197 -6 -764 -4 -876 -7 -913 -21 -13 -5 -14 -4 -5 6 19 19 72 20 908 25 429 2 970 5 1203 7 257 1 406 5 380 10 -24 5 -221 6 -438 2 -408 -7 -807 -7 -990 -1 -58 1 -294 -1 -525 -5z"></path><path d="M2628 903 c12 -2 32 -2 45 0 12 2 2 4 -23 4 -25 0 -35 -2 -22 -4z"></path><path d="M2463 893 c26 -2 67 -2 90 0 23 2 2 3 -48 3 -49 0 -68 -1 -42 -3z"></path><path d="M913 883 c37 -2 96 -2 130 0 34 2 4 3 -68 3 -71 0 -99 -1 -62 -3z"></path><path d="M1532 883 c159 -2 417 -2 575 0 159 1 29 2 -287 2 -316 0 -446 -1 -288 -2z"></path><path d="M188 873 c6 -2 18 -2 25 0 6 3 1 5 -13 5 -14 0 -19 -2 -12 -5z"></path><path d="M678 873 c28 -2 76 -2 105 0 28 2 5 3 -53 3 -58 0 -81 -1 -52 -3z"></path><path d="M327 863 c51 -2 135 -2 185 0 51 1 10 3 -92 3 -102 0 -143 -2 -93 -3z"></path><path d="M650 785 c-28 -25 -55 -45 -59 -45 -5 0 -29 18 -52 40 -58 54 -105 53 -166 -3 l-22 -20 -32 28 c-27 22 -40 26 -67 21 -35 -5 -67 -27 -83 -57 -10 -20 12 -94 29 -94 6 0 21 16 34 35 31 46 60 50 88 11 28 -40 43 -39 76 5 16 20 37 40 48 44 25 9 70 -5 88 -28 11 -14 10 -14 -12 1 -13 9 -29 17 -35 17 -5 0 4 -9 20 -20 17 -11 41 -27 55 -36 l25 -16 -25 21 c-28 23 -16 28 14 6 33 -25 69 -18 106 20 19 19 43 35 54 35 12 -1 41 -19 66 -41 25 -23 36 -36 25 -31 -11 6 -31 22 -44 36 -14 14 -32 26 -40 25 -14 0 -14 -1 -1 -6 8 -3 31 -20 51 -38 33 -30 40 -32 79 -25 28 5 54 20 79 44 20 20 44 36 53 36 9 0 38 -18 63 -40 85 -73 106 -75 149 -10 35 54 64 53 123 -1 39 -36 49 -41 79 -36 25 4 33 3 28 -6 -4 -7 9 4 29 22 43 41 50 56 9 20 -15 -13 -13 -9 5 9 18 17 41 32 52 32 30 0 73 -19 67 -29 -3 -5 10 -23 29 -40 36 -31 51 -39 40 -22 -3 6 8 8 27 4 27 -4 43 2 83 30 83 57 101 57 170 -1 38 -32 92 -26 159 16 73 47 95 48 161 13 79 -42 101 -40 168 15 16 13 38 24 51 24 25 0 66 -26 66 -42 0 -6 -11 -1 -24 11 -14 13 -32 21 -43 18 -16 -4 -15 -5 3 -6 11 0 33 -15 50 -32 40 -42 76 -59 121 -58 38 2 38 2 -8 8 -25 4 -58 14 -72 24 -38 25 -33 31 6 7 60 -37 148 -20 176 34 11 21 12 28 1 41 -17 20 -23 19 -67 -11 -45 -30 -65 -27 -145 22 -70 42 -111 44 -150 7 -36 -34 -74 -34 -148 1 -78 37 -100 34 -160 -19 -29 -25 -61 -45 -73 -45 -13 0 -55 16 -94 35 -39 19 -83 35 -97 35 -15 0 -43 -16 -71 -40 -25 -22 -52 -40 -59 -40 -7 0 -35 16 -61 36 -85 65 -174 68 -220 8 -14 -19 -30 -34 -35 -34 -4 0 -32 18 -61 40 -71 53 -95 52 -146 -5 -22 -25 -46 -45 -53 -45 -7 0 -31 21 -55 46 -52 58 -76 59 -150 10 -30 -20 -63 -36 -73 -36 -10 0 -37 20 -59 45 -44 49 -67 55 -111 29 l-27 -16 25 21 c39 33 68 27 114 -24 23 -25 48 -45 56 -45 8 0 41 16 73 36 79 49 100 47 153 -10 24 -25 48 -46 54 -46 6 0 30 20 52 45 52 57 76 58 147 5 57 -43 66 -46 77 -28 5 7 2 9 -8 5 -10 -3 -37 10 -69 34 -70 52 -95 51 -148 -6 -23 -25 -46 -45 -51 -45 -5 0 -26 19 -47 41 -63 69 -83 69 -179 4 -20 -14 -43 -25 -51 -25 -7 0 -33 20 -56 45 -30 31 -52 45 -70 45 -17 0 -44 -16 -77 -45z m-114 -15 c24 -22 48 -40 53 -40 5 0 23 12 40 26 17 14 31 21 31 15 0 -11 -57 -51 -73 -51 -4 0 -27 18 -51 40 -30 27 -52 40 -72 40 -33 0 -78 -27 -101 -59 l-15 -23 -19 31 c-10 17 -30 33 -44 37 -34 9 -83 -13 -100 -45 -8 -14 -14 -22 -15 -18 -1 32 57 77 100 77 12 0 35 -14 52 -31 27 -27 32 -29 41 -14 14 25 69 55 101 55 20 0 42 -13 72 -40z m1114 -85 c13 -14 19 -25 13 -25 -5 0 -20 11 -33 25 -13 14 -19 25 -13 25 5 0 20 -11 33 -25z"></path><path d="M2125 801 c-16 -10 -41 -30 -54 -45 -32 -34 -53 -33 -137 9 -92 46 -119 46 -178 -6 -53 -47 -55 -47 -133 12 -35 27 -51 32 -102 33 -50 1 -63 -3 -85 -23 -14 -14 -26 -29 -26 -34 0 -5 9 2 20 16 40 51 136 44 215 -17 26 -20 54 -36 62 -36 8 0 26 13 41 29 58 61 87 64 185 16 39 -19 81 -35 94 -35 13 0 39 17 61 39 50 51 83 59 142 37 125 -48 119 -47 149 -32 15 8 33 22 40 30 22 27 78 19 139 -18 80 -49 100 -52 145 -22 47 32 64 33 78 2 14 -30 -1 -60 -44 -86 -18 -11 -26 -20 -18 -20 20 0 81 65 81 87 0 21 -29 53 -49 53 -6 0 -29 -12 -51 -26 -34 -23 -43 -25 -72 -15 -18 6 -53 25 -78 41 -57 38 -101 39 -148 4 -42 -33 -71 -33 -142 0 -66 31 -95 32 -135 7z"></path><path d="M412 713 c-23 -35 -38 -62 -26 -48 5 6 22 25 38 43 17 17 25 32 19 32 -7 0 -20 -12 -31 -27z"></path><path d="M681 706 c-21 -21 -46 -37 -65 -39 l-31 -4 30 -1 c24 -2 40 7 70 38 21 22 37 40 34 40 -3 0 -20 -16 -38 -34z"></path><path d="M949 704 c-20 -20 -52 -40 -70 -44 -32 -7 -32 -8 -6 -9 19 -1 41 11 71 39 24 22 50 40 59 40 9 0 39 -20 67 -45 28 -25 54 -45 57 -45 3 0 4 2 2 4 -2 2 -28 24 -57 50 -29 25 -60 46 -70 46 -10 0 -34 -16 -53 -36z"></path><path d="M1219 694 c-12 -20 -36 -42 -53 -50 -22 -9 -25 -13 -12 -14 11 0 38 20 62 45 23 25 48 45 57 45 9 0 37 -18 62 -40 31 -27 55 -40 73 -39 25 1 25 2 -5 9 -18 4 -51 24 -73 44 -52 47 -81 47 -111 0z"></path><path d="M1521 726 c2 -2 20 -6 39 -10 25 -4 31 -3 20 4 -14 9 -69 15 -59 6z"></path><path d="M2439 714 c-17 -21 -63 -44 -91 -45 -13 0 -17 -3 -10 -6 7 -3 23 -2 36 1 25 6 105 66 89 66 -6 0 -16 -7 -24 -16z"></path><path d="M235 680 c-29 -46 -38 -49 -59 -18 -9 12 -16 18 -16 12 0 -6 9 -19 20 -29 23 -21 41 -11 66 37 19 36 33 35 69 -2 16 -16 36 -30 44 -29 11 0 9 3 -5 9 -12 4 -30 20 -42 34 -28 36 -48 33 -77 -14z"></path><path d="M2144 704 c-19 -15 -19 -15 1 -6 11 5 27 12 35 15 13 5 13 6 -1 6 -8 1 -24 -6 -35 -15z"></path><path d="M2265 695 c22 -13 45 -24 50 -25 6 0 -8 11 -30 25 -22 13 -44 24 -50 25 -5 0 8 -11 30 -25z"></path><path d="M1794 679 c-23 -17 -57 -35 -75 -39 -30 -7 -31 -8 -8 -9 15 -1 48 14 75 32 27 19 56 36 64 40 13 5 13 5 0 6 -8 0 -34 -14 -56 -30z"></path><path d="M1936 675 c35 -25 59 -35 84 -34 l35 2 -41 6 c-23 4 -56 19 -73 34 -18 15 -37 27 -44 27 -6 0 12 -16 39 -35z"></path><path d="M2085 670 c-16 -11 -25 -20 -20 -20 10 0 64 39 55 40 -3 0 -18 -9 -35 -20z"></path><path d="M825 599 c-611 -10 -682 -16 -647 -51 14 -14 -53 -14 1520 -3 562 3 1022 10 1022 14 0 19 -99 23 -560 28 -435 3 -1655 -10 -1885 -22 -74 -3 -81 -2 -36 5 158 25 2378 37 2456 13 41 -13 38 -37 -5 -44 l-35 -6 31 -2 c41 -1 64 23 42 46 -11 11 -48 17 -124 23 -136 10 -1156 9 -1779 -1z"></path><path d="M1248 533 c215 -2 569 -2 785 0 215 1 39 2 -393 2 -432 0 -608 -1 -392 -2z"></path><path d="M218 523 c12 -2 30 -2 40 0 9 3 -1 5 -23 4 -22 0 -30 -2 -17 -4z"></path><path d="M723 523 c26 -2 67 -2 90 0 23 2 2 3 -48 3 -49 0 -68 -1 -42 -3z"></path><path d="M378 513 c57 -2 147 -2 200 0 53 1 7 3 -103 3 -110 0 -154 -2 -97 -3z"></path><path d="M539 465 c-1 -3 -2 -9 -3 -15 0 -5 -5 -10 -9 -9 -4 0 -22 -11 -38 -25 -34 -29 -47 -26 -88 18 -32 34 -73 34 -100 0 -12 -15 -21 -34 -21 -43 0 -9 8 0 18 19 25 51 61 52 113 5 40 -36 47 -36 82 -7 10 9 17 11 17 4 0 -6 -13 -18 -30 -27 -29 -15 -31 -14 -69 21 -56 50 -89 45 -112 -16 -20 -54 -38 -57 -54 -10 -14 41 -39 46 -43 10 -3 -27 31 -86 60 -104 27 -17 68 9 85 54 19 46 34 50 53 14 8 -14 21 -29 30 -34 28 -15 93 7 123 41 l29 31 36 -35 c21 -20 48 -40 62 -46 18 -7 20 -10 7 -10 -9 -1 -37 17 -60 38 l-42 39 -37 -34 c-21 -19 -46 -34 -57 -34 -11 0 -27 -3 -35 -6 -11 -4 -28 6 -50 31 l-35 37 -14 -34 c-16 -37 -51 -68 -77 -68 -9 0 -28 12 -42 28 -49 52 -61 99 -32 123 14 11 19 10 35 -10 11 -13 19 -19 19 -14 0 6 -9 18 -20 28 -19 17 -21 17 -40 0 -34 -31 -24 -72 33 -132 17 -18 39 -33 50 -33 23 0 87 62 87 85 0 11 10 5 35 -20 23 -25 40 -35 51 -31 8 3 24 6 35 6 11 0 36 15 57 34 l37 34 41 -38 c57 -53 98 -53 150 1 21 21 42 39 47 39 6 0 33 -20 62 -45 56 -47 107 -74 102 -53 -1 7 7 14 18 16 11 2 41 25 67 50 l48 46 32 -30 c86 -81 116 -83 182 -14 29 31 56 50 70 50 12 0 53 -20 90 -45 38 -25 77 -45 87 -45 17 0 89 74 89 92 0 15 28 8 34 -8 9 -23 8 -26 -6 -18 -7 4 -2 -5 11 -19 25 -28 37 -35 25 -16 -4 7 -1 10 7 7 8 -3 13 -11 11 -17 -3 -16 47 -33 76 -26 14 3 38 19 54 36 33 32 45 35 73 16 49 -34 75 -49 75 -44 0 10 -94 67 -111 67 -9 0 -24 -11 -32 -23 -23 -35 -69 -52 -104 -38 l-28 11 29 -6 c37 -7 81 11 101 42 20 31 43 30 89 -1 94 -64 118 -65 183 -11 67 57 90 55 151 -15 18 -21 41 -41 52 -44 23 -7 72 20 109 59 35 38 72 34 116 -11 19 -20 35 -41 35 -47 0 -6 -16 8 -36 32 -48 56 -74 55 -139 -5 -27 -25 -41 -41 -30 -35 11 5 33 24 49 41 44 46 70 41 131 -24 29 -31 59 -55 70 -55 14 1 9 5 -14 16 -19 8 -31 17 -27 21 3 4 12 1 18 -5 7 -7 26 -12 42 -12 32 0 71 37 108 104 9 17 17 25 18 17 0 -20 -80 -121 -105 -132 -19 -8 -19 -9 0 -6 10 1 41 29 67 61 36 45 47 66 44 87 -3 34 -23 59 -45 59 -19 0 -91 -57 -91 -72 0 -5 12 3 28 20 36 38 70 49 88 28 8 -9 9 -11 2 -6 -21 18 -38 11 -87 -35 -26 -25 -52 -45 -58 -45 -5 0 -25 16 -44 36 -44 47 -90 67 -123 54 -13 -5 -45 -25 -71 -44 -26 -20 -51 -36 -57 -36 -6 0 -33 20 -59 45 -56 52 -80 56 -133 20 -49 -33 -92 -55 -109 -55 -7 0 -35 14 -61 32 -61 40 -95 40 -141 0 -48 -43 -76 -41 -129 8 -24 22 -48 40 -53 40 -5 0 -28 -20 -51 -45 -22 -25 -47 -45 -55 -45 -8 0 -42 18 -75 40 -33 22 -74 43 -91 46 -29 6 -37 2 -81 -45 -65 -69 -96 -70 -156 -4 -49 53 -56 53 -132 -11 -24 -20 -53 -36 -64 -36 -24 0 -78 37 -78 53 0 6 13 -1 28 -16 38 -37 63 -34 116 12 70 61 82 61 131 7 58 -62 82 -61 151 4 33 31 62 50 76 50 13 0 55 -20 92 -45 38 -25 74 -45 80 -45 7 0 32 20 56 45 24 25 48 45 53 45 6 0 29 -18 53 -40 53 -48 77 -50 128 -8 49 40 81 40 142 0 26 -18 55 -32 63 -32 9 0 45 18 81 40 36 22 75 40 88 40 13 0 43 -19 71 -45 26 -25 53 -45 58 -45 6 0 31 16 56 35 65 50 91 58 131 41 18 -7 49 -30 68 -50 37 -38 52 -44 64 -25 4 7 1 10 -7 7 -8 -3 -31 10 -53 29 -21 19 -53 41 -72 49 -41 17 -75 6 -138 -45 -21 -17 -43 -31 -49 -31 -5 0 -32 20 -58 45 -28 26 -58 45 -71 45 -13 0 -52 -18 -88 -40 -36 -22 -72 -40 -81 -40 -8 0 -37 14 -63 32 -27 17 -61 31 -76 31 -16 0 -45 -13 -68 -31 -22 -18 -49 -32 -60 -32 -11 0 -39 18 -62 40 -23 22 -48 40 -56 40 -8 0 -34 -20 -57 -45 -24 -25 -48 -45 -53 -45 -6 0 -41 20 -78 45 -38 25 -79 45 -91 45 -25 0 -67 -30 -103 -72 -36 -43 -71 -37 -125 18 -51 54 -61 54 -134 -7 -26 -21 -56 -39 -67 -39 -11 0 -45 25 -77 55 -33 31 -67 55 -79 55 -11 0 -43 -20 -69 -45 -26 -25 -55 -45 -62 -45 -8 0 -32 20 -52 45 -26 31 -46 45 -62 45 -14 0 -26 -2 -26 -5z m77 -41 c19 -19 34 -40 34 -45 0 -23 47 -5 91 36 26 25 57 45 68 45 12 0 35 -14 53 -31 l33 -31 -33 26 c-19 14 -42 26 -53 26 -11 0 -42 -20 -68 -45 -60 -56 -83 -57 -116 -5 -16 26 -36 43 -57 49 -28 8 -29 9 -9 10 15 1 36 -12 57 -35z m273 -79 c26 -24 58 -49 72 -54 17 -7 19 -10 7 -10 -10 -1 -43 22 -73 49 -30 28 -62 50 -70 50 -8 0 -31 -18 -51 -40 -20 -22 -44 -40 -53 -39 -11 0 -10 3 6 9 11 5 34 25 50 44 15 20 36 36 46 36 10 0 39 -20 66 -45z"></path><path d="M1650 345 c-48 -69 -80 -68 -183 6 -22 16 -49 29 -61 29 -11 0 -41 -22 -68 -50 -66 -69 -101 -67 -180 8 l-37 35 -41 -42 c-23 -23 -51 -46 -63 -51 -17 -7 -18 -9 -5 -9 10 -1 39 19 65 44 l47 45 35 -34 c78 -73 114 -75 181 -6 27 28 57 50 67 50 10 0 45 -18 77 -40 69 -47 96 -56 125 -41 19 10 88 101 77 101 -3 0 -19 -20 -36 -45z"></path><path d="M260 365 c0 -8 5 -15 10 -15 6 0 10 7 10 15 0 8 -4 15 -10 15 -5 0 -10 -7 -10 -15z"></path><path d="M2236 367 c12 -7 34 -27 49 -45 28 -33 73 -62 97 -62 7 1 -3 8 -22 16 -19 8 -54 35 -76 59 -23 25 -48 45 -55 45 -8 -1 -5 -6 7 -13z"></path><path d="M2171 346 c-32 -34 -87 -58 -114 -52 -22 6 -22 6 -1 -5 17 -9 29 -7 55 5 39 19 108 76 93 76 -6 0 -21 -11 -33 -24z"></path><path d="M1498 243 c79 -2 205 -2 280 0 75 1 11 3 -143 3 -154 0 -216 -2 -137 -3z"></path><path d="M873 233 c87 -2 227 -2 310 0 84 1 13 3 -158 3 -171 0 -239 -2 -152 -3z"></path><path d="M2062 233 c70 -2 187 -2 260 0 73 1 16 3 -127 3 -143 0 -203 -2 -133 -3z"></path><path d="M433 223 c54 -2 139 -2 190 0 51 1 7 3 -98 3 -104 0 -146 -2 -92 -3z"></path><path d="M945 219 c-534 -9 -765 -18 -765 -31 0 -6 236 -7 673 -2 449 4 782 3 1002 -5 361 -12 843 -19 755 -11 l-55 5 79 8 c76 7 95 12 85 21 -6 7 -978 26 -1183 24 -94 -1 -360 -5 -591 -9z"></path><path d="M2523 223 c37 -2 97 -2 135 0 37 2 6 3 -68 3 -74 0 -105 -1 -67 -3z"></path><path d="M170 205 c-10 -12 -10 -18 0 -30 11 -13 56 -15 309 -13 l296 3 -300 5 c-258 4 -300 7 -300 20 0 12 18 16 80 21 l80 5 -76 2 c-58 2 -80 -2 -89 -13z"></path><path d="M1023 173 c131 -2 343 -2 470 0 128 1 21 2 -238 2 -259 0 -363 -1 -232 -2z"></path><path d="M2683 173 c9 -2 23 -2 30 0 6 3 -1 5 -18 5 -16 0 -22 -2 -12 -5z"></path><path d="M1788 163 c34 -2 88 -2 120 0 31 2 3 3 -63 3 -66 0 -92 -1 -57 -3z"></path></g></svg>