<svg width="257" height="8" viewBox="0 0 257 8" fill="none" xmlns="http://www.w3.org/2000/svg">
<path d="M116.179 1.34596C78.4786 1.64596 0.178558 3.94596 0.178558 4.64596C0.178558 6.44596 5.37856 6.74596 39.5786 7.34596C63.8786 7.74596 91.8786 7.34596 125.179 6.24596C200.579 3.84596 212.979 3.64596 234.679 4.44596C245.679 4.84596 254.879 4.84596 254.979 4.44596C255.179 3.94596 255.879 3.94596 256.479 4.34596C257.179 4.74596 257.079 4.24596 256.279 3.34596C254.779 1.44596 253.679 1.04596 254.779 2.84596C255.279 3.54596 254.979 3.74596 253.879 3.34596C247.179 0.745958 222.479 0.445958 116.179 1.34596Z" fill="black"/>
</svg>
