<svg width="120" height="7" viewBox="0 0 253 7" fill="none" xmlns="http://www.w3.org/2000/svg">
	<path d="M77.7854 1.32392C51.6854 1.72392 38.3544 1.41949 33.3544 1.81949C15.0514 2.66189 15.1091 1.73648 0.986452 3.00424C0.986452 3.57064 0.98645 4.81135 0.98645 4.81135C0.98645 4.81135 0.986449 4.56403 0.986452 4.99763C2.16129 4.99763 146.75 5.45004 209.804 4.69739C216.212 4.6209 237.562 5.18491 237.562 5.18491L252.008 5.0039C252.008 5.0039 252.008 4.93748 252.008 4.43358C252.008 4.26535 252.008 3.42057 252.008 2.9987C248.687 2.9987 252.008 2.9987 246.333 2.9987C238.643 2.9987 221.902 2.17532 218.838 2.09644C216.502 2.03629 201.932 1.45163 199.289 1.387C157.689 0.386995 150.685 0.323918 77.7854 1.32392Z" fill="black" />
</svg>
