<svg xmlns="http://www.w3.org/2000/svg" preserveAspectRatio="none" viewBox="0 0 1182 1301" role="img" aria-hidden="true"><path d="M969.797 10.15c44.464 1.46 89.04 3.08 133.38-.633 33.753-2.827 62.832-12.09 72.6 23.795 10.194 37.45-.523 89.883 1.18 129.345l4.72 171.272c2.347 197.53-8.84 394.9-9.523 592.448l.836 203.07c.565 47.22 24.16 132.67-40.54 140.27-15.618 1.834-31.38-.25-47.056-1.507-162.526-13.032-328.52 28.697-491.667 32.163a2776.42 2776.42 0 01-301.541-9.988 2765.78 2765.78 0 01-157.816-18.425c-26.613-3.886-98.774-6.165-118.52-26.952-23.065-24.28-13.3-69.178-9.536-98.673 5.44-42.745 8.86-85.493 11.52-128.63 6.033-97.835-7.62-195.84-6.667-293.862 1.143-117.075 5.723-184.65-.378-301.563-3.122-59.817 2.9-169.11-2.117-228.788-3.54-42.2-14.384-123.63-4.842-165.632C12.117-8.81 137.387 1.262 162.75 1.28l291.472.633 515.574 8.24z" fill="#1519d3" fill-rule="evenodd"></path></svg>
