<svg preserveAspectRatio="none" xmlns="http://www.w3.org/2000/svg" viewBox="0 0 1182 396">
                <path d="M393 4l167-1c68-1 135 4 203 6 31 1 59 2 89-1 30-4 59-8 91-8l151
                5c12 0 24 1 35 3 70 14 48 96 47 124l-3 127c0 23 0 45 6 68 5 21 11 51-39 60-12 3-26 3-39 3l-208 4-407
                2c-126 0-253 2-378-7-28-2-81 4-96-11-7-7-7-15-6-23 5-84-4-168-5-252V52c0-9-5-28 6-36 6-3 17-4 27-5
                118-7 239-7 359-7" fill="#1519d3" fill-rule="evenodd"></path>
            </svg>
