<svg xmlns="http://www.w3.org/2000/svg" preserveAspectRatio="none" viewBox="0 0 348 81" role="img" aria-hidden="true"><path d="M1.942 56.59l.288-1.91C4.053 41.168-12.7 13.38 24.366 5.612c8.495-1.78 18.16-2.314 27.632-2.75 84.89-3.9 177.346-4.497 261.292 2.56 5.293.445 10.765.966 15.016 2.342 13.677 4.43 17.082 19.17 18.763 25.834 2.78 11.02-.662 22.114-10.41 32.447-2.56 2.714-7.044 5.13-12.883 6.768-8.127 2.28-18.218 2.94-27.956 3.483-81.797 4.57-165.66 5.304-248.08 4.323-12.25-.145-25.564-.512-34.754-3.86C-.657 71.79.834 63.54 1.942 56.59" fill-rule="evenodd"></path></svg>
